<mxfile host="app.diagrams.net" agent="Mozilla/5.0 (Windows NT 10.0; Win64; x64) AppleWebKit/537.36 (KHTML, like Gecko) Chrome/139.0.0.0 Safari/537.36" version="28.1.1">
  <diagram name="OrganizacaoEventoBPMN" id="0">
    <mxGraphModel dx="1665" dy="743" grid="1" gridSize="10" guides="1" tooltips="1" connect="1" arrows="1" fold="1" page="1" pageScale="1" pageWidth="850" pageHeight="1100" background="none" math="0" shadow="1" adaptiveColors="auto">
      <root>
        <mxCell id="0" />
        <mxCell id="1" parent="0" />
        <mxCell id="pool1" value="Organizador" style="swimlane;horizontal=1;labelBackgroundColor=none;fillColor=#FAE5C7;strokeColor=#0F8B8D;fontColor=#143642;rounded=1;" parent="1" vertex="1">
          <mxGeometry y="10" width="2500" height="510" as="geometry" />
        </mxCell>
        <mxCell id="start" value="Início" style="ellipse;whiteSpace=wrap;html=1;aspect=fixed;shape=startEvent;labelBackgroundColor=none;fillColor=#FAE5C7;strokeColor=#0F8B8D;fontColor=#143642;rounded=1;" parent="pool1" vertex="1">
          <mxGeometry x="100" y="40" width="160" height="40" as="geometry" />
        </mxCell>
        <mxCell id="A1" value="Login / Cadastro" style="rounded=1;whiteSpace=wrap;html=1;labelBackgroundColor=none;fillColor=#FAE5C7;strokeColor=#0F8B8D;fontColor=#143642;" parent="pool1" vertex="1">
          <mxGeometry x="100" y="160" width="160" height="40" as="geometry" />
        </mxCell>
        <mxCell id="A2" value="Criar ou Editar Evento" style="rounded=1;whiteSpace=wrap;html=1;labelBackgroundColor=none;fillColor=#FAE5C7;strokeColor=#0F8B8D;fontColor=#143642;" parent="pool1" vertex="1">
          <mxGeometry x="160" y="290" width="160" height="40" as="geometry" />
        </mxCell>
        <mxCell id="A3" value="Configurar Espaço / Lista de Convidados" style="rounded=1;whiteSpace=wrap;html=1;labelBackgroundColor=none;fillColor=#FAE5C7;strokeColor=#0F8B8D;fontColor=#143642;" parent="pool1" vertex="1">
          <mxGeometry x="310" y="80" width="160" height="40" as="geometry" />
        </mxCell>
        <mxCell id="A4" value="Disparar Convites" style="rounded=1;whiteSpace=wrap;html=1;labelBackgroundColor=none;fillColor=#FAE5C7;strokeColor=#0F8B8D;fontColor=#143642;" parent="pool1" vertex="1">
          <mxGeometry x="660" y="270" width="160" height="40" as="geometry" />
        </mxCell>
        <mxCell id="A5" value="Gerir Orçamento" style="rounded=1;whiteSpace=wrap;html=1;labelBackgroundColor=none;fillColor=#FAE5C7;strokeColor=#0F8B8D;fontColor=#143642;" parent="pool1" vertex="1">
          <mxGeometry x="380" y="390" width="160" height="40" as="geometry" />
        </mxCell>
        <mxCell id="A6" value="Solicitar Sugestão de Fornecedores via IA" style="rounded=1;whiteSpace=wrap;html=1;labelBackgroundColor=none;fillColor=#FAE5C7;strokeColor=#0F8B8D;fontColor=#143642;" parent="pool1" vertex="1">
          <mxGeometry x="790" y="60" width="160" height="40" as="geometry" />
        </mxCell>
        <mxCell id="A7" value="Selecionar Fornecedor" style="rounded=1;whiteSpace=wrap;html=1;labelBackgroundColor=none;fillColor=#FAE5C7;strokeColor=#0F8B8D;fontColor=#143642;" parent="pool1" vertex="1">
          <mxGeometry x="980" y="170" width="160" height="40" as="geometry" />
        </mxCell>
        <mxCell id="A8" value="Negociar Fornecedor" style="rounded=1;whiteSpace=wrap;html=1;labelBackgroundColor=none;fillColor=#FAE5C7;strokeColor=#0F8B8D;fontColor=#143642;" parent="pool1" vertex="1">
          <mxGeometry x="1270" y="110" width="160" height="40" as="geometry" />
        </mxCell>
        <mxCell id="A9" value="Efetuar Pagamento / Registrar Cobrança" style="rounded=1;whiteSpace=wrap;html=1;labelBackgroundColor=none;fillColor=#FAE5C7;strokeColor=#0F8B8D;fontColor=#143642;" parent="pool1" vertex="1">
          <mxGeometry x="1150" y="340" width="160" height="40" as="geometry" />
        </mxCell>
        <mxCell id="D1" value="Pagamento Integral ou Sinal?" style="rhombus;whiteSpace=wrap;html=1;labelBackgroundColor=none;fillColor=#FAE5C7;strokeColor=#0F8B8D;fontColor=#143642;rounded=1;" parent="pool1" vertex="1">
          <mxGeometry x="1430" y="80" width="160" height="40" as="geometry" />
        </mxCell>
        <mxCell id="A10" value="Checklist e Gamificação das Tarefas" style="rounded=1;whiteSpace=wrap;html=1;labelBackgroundColor=none;fillColor=#FAE5C7;strokeColor=#0F8B8D;fontColor=#143642;" parent="pool1" vertex="1">
          <mxGeometry x="1680" y="20" width="160" height="40" as="geometry" />
        </mxCell>
        <mxCell id="D2" value="Tudo pronto?" style="rhombus;whiteSpace=wrap;html=1;labelBackgroundColor=none;fillColor=#FAE5C7;strokeColor=#0F8B8D;fontColor=#143642;rounded=1;" parent="pool1" vertex="1">
          <mxGeometry x="1840" y="20" width="160" height="40" as="geometry" />
        </mxCell>
        <mxCell id="A11" value="Pré-Evento - Confirmações finais" style="rounded=1;whiteSpace=wrap;html=1;labelBackgroundColor=none;fillColor=#FAE5C7;strokeColor=#0F8B8D;fontColor=#143642;" parent="pool1" vertex="1">
          <mxGeometry x="2000" y="20" width="160" height="40" as="geometry" />
        </mxCell>
        <mxCell id="A12" value="Pós-Evento - Avaliações e Relatórios" style="rounded=1;whiteSpace=wrap;html=1;labelBackgroundColor=none;fillColor=#FAE5C7;strokeColor=#0F8B8D;fontColor=#143642;" parent="pool1" vertex="1">
          <mxGeometry x="2160" y="20" width="160" height="40" as="geometry" />
        </mxCell>
        <mxCell id="end" value="Fim" style="ellipse;whiteSpace=wrap;html=1;aspect=fixed;shape=endEvent;labelBackgroundColor=none;fillColor=#FAE5C7;strokeColor=#0F8B8D;fontColor=#143642;rounded=1;" parent="pool1" vertex="1">
          <mxGeometry x="2320" y="20" width="160" height="40" as="geometry" />
        </mxCell>
        <mxCell id="pool2" value="Convidado" style="swimlane;horizontal=1;labelBackgroundColor=none;fillColor=#FAE5C7;strokeColor=#0F8B8D;fontColor=#143642;rounded=1;" parent="1" vertex="1">
          <mxGeometry y="570" width="2500" height="120" as="geometry" />
        </mxCell>
        <mxCell id="C1" value="Recebe Convite" style="rounded=1;whiteSpace=wrap;html=1;labelBackgroundColor=none;fillColor=#FAE5C7;strokeColor=#0F8B8D;fontColor=#143642;" parent="pool2" vertex="1">
          <mxGeometry x="560" y="20" width="160" height="40" as="geometry" />
        </mxCell>
        <mxCell id="C2" value="Acessa Espaço dos Convidados" style="rounded=1;whiteSpace=wrap;html=1;labelBackgroundColor=none;fillColor=#FAE5C7;strokeColor=#0F8B8D;fontColor=#143642;" parent="pool2" vertex="1">
          <mxGeometry x="640" y="20" width="160" height="40" as="geometry" />
        </mxCell>
        <mxCell id="C3" value="Confirma Presença - RSVP" style="rounded=1;whiteSpace=wrap;html=1;labelBackgroundColor=none;fillColor=#FAE5C7;strokeColor=#0F8B8D;fontColor=#143642;" parent="pool2" vertex="1">
          <mxGeometry x="720" y="20" width="160" height="40" as="geometry" />
        </mxCell>
        <mxCell id="C4" value="Consulta Info - Data, Local, Presentes" style="rounded=1;whiteSpace=wrap;html=1;labelBackgroundColor=none;fillColor=#FAE5C7;strokeColor=#0F8B8D;fontColor=#143642;" parent="pool2" vertex="1">
          <mxGeometry x="800" y="20" width="160" height="40" as="geometry" />
        </mxCell>
        <mxCell id="C5" value="Espaço Interativo - Playlist, Fotos, Wishlist" style="rounded=1;whiteSpace=wrap;html=1;labelBackgroundColor=none;fillColor=#FAE5C7;strokeColor=#0F8B8D;fontColor=#143642;" parent="pool2" vertex="1">
          <mxGeometry x="880" y="20" width="160" height="40" as="geometry" />
        </mxCell>
        <mxCell id="pool3" value="Fornecedor" style="swimlane;horizontal=1;labelBackgroundColor=none;fillColor=#FAE5C7;strokeColor=#0F8B8D;fontColor=#143642;rounded=1;" parent="1" vertex="1">
          <mxGeometry y="700" width="2500" height="120" as="geometry" />
        </mxCell>
        <mxCell id="F1" value="Recebe Solicitação" style="rounded=1;whiteSpace=wrap;html=1;labelBackgroundColor=none;fillColor=#FAE5C7;strokeColor=#0F8B8D;fontColor=#143642;" parent="pool3" vertex="1">
          <mxGeometry x="1040" y="20" width="160" height="40" as="geometry" />
        </mxCell>
        <mxCell id="F2" value="Envia Proposta" style="rounded=1;whiteSpace=wrap;html=1;labelBackgroundColor=none;fillColor=#FAE5C7;strokeColor=#0F8B8D;fontColor=#143642;" parent="pool3" vertex="1">
          <mxGeometry x="1120" y="20" width="160" height="40" as="geometry" />
        </mxCell>
        <mxCell id="F3" value="Confirma Reserva" style="rounded=1;whiteSpace=wrap;html=1;labelBackgroundColor=none;fillColor=#FAE5C7;strokeColor=#0F8B8D;fontColor=#143642;" parent="pool3" vertex="1">
          <mxGeometry x="1520" y="20" width="160" height="40" as="geometry" />
        </mxCell>
        <mxCell id="F4" value="Executa Serviço" style="rounded=1;whiteSpace=wrap;html=1;labelBackgroundColor=none;fillColor=#FAE5C7;strokeColor=#0F8B8D;fontColor=#143642;" parent="pool3" vertex="1">
          <mxGeometry x="2080" y="20" width="160" height="40" as="geometry" />
        </mxCell>
        <mxCell id="pool4" value="Sistema" style="swimlane;horizontal=1;labelBackgroundColor=none;fillColor=#FAE5C7;strokeColor=#0F8B8D;fontColor=#143642;rounded=1;" parent="1" vertex="1">
          <mxGeometry y="830" width="2500" height="120" as="geometry" />
        </mxCell>
        <mxCell id="S1" value="Autenticação e Sessão" style="rounded=1;whiteSpace=wrap;html=1;labelBackgroundColor=none;fillColor=#FAE5C7;strokeColor=#0F8B8D;fontColor=#143642;" parent="pool4" vertex="1">
          <mxGeometry x="80" y="20" width="160" height="40" as="geometry" />
        </mxCell>
        <mxCell id="S2" value="Persistência de Dados" style="rounded=1;whiteSpace=wrap;html=1;labelBackgroundColor=none;fillColor=#FAE5C7;strokeColor=#0F8B8D;fontColor=#143642;" parent="pool4" vertex="1">
          <mxGeometry x="240" y="20" width="160" height="40" as="geometry" />
        </mxCell>
        <mxCell id="S3" value="Gerar Link do Convite" style="rounded=1;whiteSpace=wrap;html=1;labelBackgroundColor=none;fillColor=#FAE5C7;strokeColor=#0F8B8D;fontColor=#143642;" parent="pool4" vertex="1">
          <mxGeometry x="560" y="20" width="160" height="40" as="geometry" />
        </mxCell>
        <mxCell id="S4" value="Página Pública do Evento" style="rounded=1;whiteSpace=wrap;html=1;labelBackgroundColor=none;fillColor=#FAE5C7;strokeColor=#0F8B8D;fontColor=#143642;" parent="pool4" vertex="1">
          <mxGeometry x="640" y="20" width="160" height="40" as="geometry" />
        </mxCell>
        <mxCell id="S5" value="Coletar RSVP e Atualizar" style="rounded=1;whiteSpace=wrap;html=1;labelBackgroundColor=none;fillColor=#FAE5C7;strokeColor=#0F8B8D;fontColor=#143642;" parent="pool4" vertex="1">
          <mxGeometry x="720" y="20" width="160" height="40" as="geometry" />
        </mxCell>
        <mxCell id="S6" value="Controle Financeiro" style="rounded=1;whiteSpace=wrap;html=1;labelBackgroundColor=none;fillColor=#FAE5C7;strokeColor=#0F8B8D;fontColor=#143642;" parent="pool4" vertex="1">
          <mxGeometry x="1520" y="20" width="160" height="40" as="geometry" />
        </mxCell>
        <mxCell id="S7" value="Notificações e Lembretes" style="rounded=1;whiteSpace=wrap;html=1;labelBackgroundColor=none;fillColor=#FAE5C7;strokeColor=#0F8B8D;fontColor=#143642;" parent="pool4" vertex="1">
          <mxGeometry x="1600" y="20" width="160" height="40" as="geometry" />
        </mxCell>
        <mxCell id="S8" value="Tutoriais por Módulo" style="rounded=1;whiteSpace=wrap;html=1;labelBackgroundColor=none;fillColor=#FAE5C7;strokeColor=#0F8B8D;fontColor=#143642;" parent="pool4" vertex="1">
          <mxGeometry x="240" y="20" width="160" height="40" as="geometry" />
        </mxCell>
        <mxCell id="S9" value="Relatórios / KPIs" style="rounded=1;whiteSpace=wrap;html=1;labelBackgroundColor=none;fillColor=#FAE5C7;strokeColor=#0F8B8D;fontColor=#143642;" parent="pool4" vertex="1">
          <mxGeometry x="2160" y="20" width="160" height="40" as="geometry" />
        </mxCell>
        <mxCell id="S10" value="Relatórios Inteligentes e Dashboards" style="rounded=1;whiteSpace=wrap;html=1;labelBackgroundColor=none;fillColor=#FAE5C7;strokeColor=#0F8B8D;fontColor=#143642;" parent="pool4" vertex="1">
          <mxGeometry x="2240" y="20" width="160" height="40" as="geometry" />
        </mxCell>
        <mxCell id="S11" value="Gamificação do Checklist" style="rounded=1;whiteSpace=wrap;html=1;labelBackgroundColor=none;fillColor=#FAE5C7;strokeColor=#0F8B8D;fontColor=#143642;" parent="pool4" vertex="1">
          <mxGeometry x="1680" y="20" width="160" height="40" as="geometry" />
        </mxCell>
        <mxCell id="pool5" value="Inteligência Artificial" style="swimlane;horizontal=1;labelBackgroundColor=none;fillColor=#FAE5C7;strokeColor=#0F8B8D;fontColor=#143642;rounded=1;" parent="1" vertex="1">
          <mxGeometry y="970" width="2500" height="120" as="geometry" />
        </mxCell>
        <mxCell id="IA1" value="Analisar Categorias e Itens" style="rounded=1;whiteSpace=wrap;html=1;labelBackgroundColor=none;fillColor=#FAE5C7;strokeColor=#0F8B8D;fontColor=#143642;" parent="pool5" vertex="1">
          <mxGeometry x="880" y="20" width="160" height="40" as="geometry" />
        </mxCell>
        <mxCell id="IA2" value="Buscar Cotações" style="rounded=1;whiteSpace=wrap;html=1;labelBackgroundColor=none;fillColor=#FAE5C7;strokeColor=#0F8B8D;fontColor=#143642;" parent="pool5" vertex="1">
          <mxGeometry x="960" y="20" width="160" height="40" as="geometry" />
        </mxCell>
        <mxCell id="IA3" value="Selecionar Top 3 Fornecedores" style="rounded=1;whiteSpace=wrap;html=1;labelBackgroundColor=none;fillColor=#FAE5C7;strokeColor=#0F8B8D;fontColor=#143642;" parent="pool5" vertex="1">
          <mxGeometry x="1040" y="20" width="160" height="40" as="geometry" />
        </mxCell>
        <mxCell id="IA4" value="Assistente Proativo - Plano Completo do Evento" style="rounded=1;whiteSpace=wrap;html=1;labelBackgroundColor=none;fillColor=#FAE5C7;strokeColor=#0F8B8D;fontColor=#143642;" parent="pool5" vertex="1">
          <mxGeometry x="720" y="20" width="160" height="40" as="geometry" />
        </mxCell>
        <mxCell id="edge_0" style="edgeStyle=orthogonalEdgeStyle;rounded=1;labelBackgroundColor=none;strokeColor=#A8201A;fontColor=default;" parent="1" source="start" target="A1" edge="1">
          <mxGeometry relative="1" as="geometry" />
        </mxCell>
        <mxCell id="edge_1" style="edgeStyle=orthogonalEdgeStyle;rounded=1;labelBackgroundColor=none;strokeColor=#A8201A;fontColor=default;" parent="1" source="A1" target="A2" edge="1">
          <mxGeometry relative="1" as="geometry" />
        </mxCell>
        <mxCell id="edge_2" style="edgeStyle=orthogonalEdgeStyle;rounded=1;labelBackgroundColor=none;strokeColor=#A8201A;fontColor=default;" parent="1" source="A2" target="A3" edge="1">
          <mxGeometry relative="1" as="geometry">
            <Array as="points">
              <mxPoint x="390" y="320" />
            </Array>
          </mxGeometry>
        </mxCell>
        <mxCell id="edge_3" style="edgeStyle=orthogonalEdgeStyle;rounded=1;labelBackgroundColor=none;strokeColor=#A8201A;fontColor=default;" parent="1" source="A3" target="A4" edge="1">
          <mxGeometry relative="1" as="geometry" />
        </mxCell>
        <mxCell id="edge_4" style="edgeStyle=orthogonalEdgeStyle;rounded=1;labelBackgroundColor=none;strokeColor=#A8201A;fontColor=default;" parent="1" source="A4" target="A5" edge="1">
          <mxGeometry relative="1" as="geometry" />
        </mxCell>
        <mxCell id="edge_5" style="edgeStyle=orthogonalEdgeStyle;rounded=1;labelBackgroundColor=none;strokeColor=#A8201A;fontColor=default;" parent="1" source="A5" target="A6" edge="1">
          <mxGeometry relative="1" as="geometry" />
        </mxCell>
        <mxCell id="edge_6" style="edgeStyle=orthogonalEdgeStyle;rounded=1;labelBackgroundColor=none;strokeColor=#A8201A;fontColor=default;" parent="1" source="A6" target="A7" edge="1">
          <mxGeometry relative="1" as="geometry" />
        </mxCell>
        <mxCell id="edge_7" style="edgeStyle=orthogonalEdgeStyle;rounded=1;labelBackgroundColor=none;strokeColor=#A8201A;fontColor=default;" parent="1" source="A7" target="A8" edge="1">
          <mxGeometry relative="1" as="geometry" />
        </mxCell>
        <mxCell id="edge_8" style="edgeStyle=orthogonalEdgeStyle;rounded=1;labelBackgroundColor=none;strokeColor=#A8201A;fontColor=default;" parent="1" source="A8" target="A9" edge="1">
          <mxGeometry relative="1" as="geometry" />
        </mxCell>
        <mxCell id="edge_9" style="edgeStyle=orthogonalEdgeStyle;rounded=1;labelBackgroundColor=none;strokeColor=#A8201A;fontColor=default;" parent="1" source="A9" target="D1" edge="1">
          <mxGeometry relative="1" as="geometry" />
        </mxCell>
        <mxCell id="edge_10" style="edgeStyle=orthogonalEdgeStyle;rounded=1;labelBackgroundColor=none;strokeColor=#A8201A;fontColor=default;" parent="1" source="D1" target="A10" edge="1">
          <mxGeometry relative="1" as="geometry" />
        </mxCell>
        <mxCell id="edge_11" style="edgeStyle=orthogonalEdgeStyle;rounded=1;labelBackgroundColor=none;strokeColor=#A8201A;fontColor=default;" parent="1" source="A10" target="D2" edge="1">
          <mxGeometry relative="1" as="geometry" />
        </mxCell>
        <mxCell id="edge_12" style="edgeStyle=orthogonalEdgeStyle;rounded=1;labelBackgroundColor=none;strokeColor=#A8201A;fontColor=default;" parent="1" source="D2" target="A11" edge="1">
          <mxGeometry relative="1" as="geometry" />
        </mxCell>
        <mxCell id="edge_13" style="edgeStyle=orthogonalEdgeStyle;rounded=1;labelBackgroundColor=none;strokeColor=#A8201A;fontColor=default;" parent="1" source="A11" target="A12" edge="1">
          <mxGeometry relative="1" as="geometry" />
        </mxCell>
        <mxCell id="edge_14" style="edgeStyle=orthogonalEdgeStyle;rounded=1;labelBackgroundColor=none;strokeColor=#A8201A;fontColor=default;" parent="1" source="A12" target="end" edge="1">
          <mxGeometry relative="1" as="geometry" />
        </mxCell>
        <mxCell id="edge_d1_integral" value="Integral" style="edgeStyle=orthogonalEdgeStyle;rounded=1;labelBackgroundColor=none;strokeColor=#A8201A;fontColor=default;" parent="1" source="D1" target="S6" edge="1">
          <mxGeometry relative="1" as="geometry" />
        </mxCell>
        <mxCell id="edge_d1_sinal" value="Sinal" style="edgeStyle=orthogonalEdgeStyle;rounded=1;labelBackgroundColor=none;strokeColor=#A8201A;fontColor=default;" parent="1" source="D1" target="S7" edge="1">
          <mxGeometry relative="1" as="geometry" />
        </mxCell>
        <mxCell id="edge_d1_to_f3" value="Não" style="edgeStyle=orthogonalEdgeStyle;rounded=1;labelBackgroundColor=none;strokeColor=#A8201A;fontColor=default;" parent="1" source="S6" target="F3" edge="1">
          <mxGeometry relative="1" as="geometry" />
        </mxCell>
        <mxCell id="edge_d1s_to_f3" value="Não" style="edgeStyle=orthogonalEdgeStyle;rounded=1;labelBackgroundColor=none;strokeColor=#A8201A;fontColor=default;" parent="1" source="S7" target="F3" edge="1">
          <mxGeometry relative="1" as="geometry" />
        </mxCell>
        <mxCell id="edge_d2_nao" value="Não" style="edgeStyle=orthogonalEdgeStyle;rounded=1;labelBackgroundColor=none;strokeColor=#A8201A;fontColor=default;" parent="1" source="D2" target="A3" edge="1">
          <mxGeometry relative="1" as="geometry" />
        </mxCell>
        <mxCell id="edge_d2_sim" value="Sim" style="edgeStyle=orthogonalEdgeStyle;rounded=1;labelBackgroundColor=none;strokeColor=#A8201A;fontColor=default;" parent="1" source="D2" target="A10" edge="1">
          <mxGeometry relative="1" as="geometry" />
        </mxCell>
        <mxCell id="msg_convite" style="edgeStyle=orthogonalEdgeStyle;rounded=1;labelBackgroundColor=none;strokeColor=#A8201A;fontColor=default;" parent="1" source="A4" target="C1" edge="1">
          <mxGeometry relative="1" as="geometry" />
        </mxCell>
        <mxCell id="msg_rsvp" style="edgeStyle=orthogonalEdgeStyle;rounded=1;labelBackgroundColor=none;strokeColor=#A8201A;fontColor=default;" parent="1" source="C3" target="S5" edge="1">
          <mxGeometry relative="1" as="geometry" />
        </mxCell>
        <mxCell id="msg_solicita_ia" style="edgeStyle=orthogonalEdgeStyle;rounded=1;labelBackgroundColor=none;strokeColor=#A8201A;fontColor=default;" parent="1" source="A6" target="IA1" edge="1">
          <mxGeometry relative="1" as="geometry" />
        </mxCell>
        <mxCell id="msg_ia_sugestao" style="edgeStyle=orthogonalEdgeStyle;rounded=1;labelBackgroundColor=none;strokeColor=#A8201A;fontColor=default;" parent="1" source="IA3" target="A7" edge="1">
          <mxGeometry relative="1" as="geometry" />
        </mxCell>
        <mxCell id="msg_solicita_forn" style="edgeStyle=orthogonalEdgeStyle;rounded=1;labelBackgroundColor=none;strokeColor=#A8201A;fontColor=default;" parent="1" source="A7" target="F1" edge="1">
          <mxGeometry relative="1" as="geometry" />
        </mxCell>
        <mxCell id="msg_proposta_forn" style="edgeStyle=orthogonalEdgeStyle;rounded=1;labelBackgroundColor=none;strokeColor=#A8201A;fontColor=default;" parent="1" source="F2" target="A8" edge="1">
          <mxGeometry relative="1" as="geometry" />
        </mxCell>
        <mxCell id="msg_confirma_servico" style="edgeStyle=orthogonalEdgeStyle;rounded=1;labelBackgroundColor=none;strokeColor=#A8201A;fontColor=default;" parent="1" source="F3" target="A11" edge="1">
          <mxGeometry relative="1" as="geometry" />
        </mxCell>
      </root>
    </mxGraphModel>
  </diagram>
</mxfile>
